<svg width="142" height="142" viewBox="0 0 142 142" fill="none" xmlns="http://www.w3.org/2000/svg">
<path fill-rule="evenodd" clip-rule="evenodd" d="M17.2184 25.2228C24.2508 18.1888 33.5649 13.8987 43.4813 13.1261C53.3977 12.3535 63.2639 15.1492 71.3009 21.0091C79.7925 14.8654 90.2849 12.1417 100.693 13.3795C111.1 14.6173 120.661 19.7259 127.475 27.6899C134.289 35.6539 137.857 45.8902 137.469 56.364C137.081 66.8379 132.767 76.7826 125.383 84.2212L86.0488 123.556C82.137 127.466 76.8322 129.663 71.3009 129.663C65.7696 129.663 60.4648 127.466 56.553 123.556L17.2184 84.2282C9.39507 76.4043 5 65.7932 5 54.729C5 43.6647 9.39507 33.0467 17.2184 25.2228Z" fill="url(#paint0_linear_293_3389)"/>
<defs>
<linearGradient id="paint0_linear_293_3389" x1="71.2488" y1="13" x2="71.2488" y2="129.663" gradientUnits="userSpaceOnUse">
<stop stop-color="#1E65A7"/>
<stop offset="1" stop-color="#00135F"/>
</linearGradient>
</defs>
</svg>
